<svg width="35" height="24" viewBox="0 0 35 24" fill="none" xmlns="http://www.w3.org/2000/svg">
<g clip-path="url(#clip0_0_34)">
<path fill-rule="evenodd" clip-rule="evenodd" d="M24.5946 0H0V12.7841H1.3208V1.28886H23.2738V5.52746H21.0842V5.53671H21.0684C21.0096 5.65146 20.8861 5.90965 20.698 6.31127C20.5098 6.7129 20.2776 7.20058 20.0012 7.77434C19.7249 8.34809 19.4162 8.98207 19.0752 9.67634C18.7342 10.3706 18.3901 11.0734 18.0433 11.7848C17.6964 12.4963 17.3524 13.1876 17.0114 13.859C16.6704 14.5302 16.3647 15.1241 16.0941 15.6404L10.7143 5.53671H9.09151L16.0941 18.446L22.1009 6.7853H24.5927V6.77176H24.5946V0ZM0 17.1961H0.00609518V17.1819H8.47042L2.42401 5.53671H4.0997L9.84995 17.0175L9.1268 18.446L9.1157 18.4247V18.4398H1.3208V22.7111H23.2738V11.1838H24.5946V24H0V17.1961ZM33.6949 24V0H35.0517V24H33.6949Z" fill="#E4E5EA"/>
</g>
<defs>
<clipPath id="clip0_0_34">
<rect width="35" height="24" fill="white"/>
</clipPath>
</defs>
</svg>
